<?xml version="1.0" standalone="no"?>
<!DOCTYPE svg PUBLIC "-//W3C//DTD SVG 20010904//EN"
 "http://www.w3.org/TR/2001/REC-SVG-20010904/DTD/svg10.dtd">
<svg version="1.0" xmlns="http://www.w3.org/2000/svg"
 width="328.000000pt" height="90.000000pt" viewBox="0 0 328.000000 90.000000"
 preserveAspectRatio="xMidYMid meet">

<g transform="translate(0.000000,90.000000) scale(0.100000,-0.100000)"
fill="#000000" stroke="none">
<path d="M1707 853 c-16 -8 -27 -16 -25 -18 7 -6 68 8 68 16 0 16 -16 17 -43
2z"/>
<path d="M1001 695 c-29 -80 -57 -148 -62 -151 -17 -10 -9 -21 14 -17 14 3 22
12 23 26 1 12 9 39 18 60 15 37 17 38 62 35 l47 -3 20 -55 c11 -30 21 -56 21
-56 1 -1 17 -5 36 -9 35 -7 35 -7 15 12 -12 11 -45 84 -75 161 -30 78 -57 142
-60 142 -3 0 -30 -65 -59 -145z m88 -17 c1 -14 -7 -18 -35 -18 -36 0 -36 1
-31 33 3 17 11 46 17 62 l12 30 18 -45 c11 -25 19 -53 19 -62z"/>
<path d="M1270 682 c0 -68 -4 -131 -9 -140 -7 -14 -4 -17 19 -17 17 0 25 4 20
10 -10 13 -20 195 -10 195 4 0 50 -45 103 -100 52 -55 100 -100 106 -100 6 0
11 50 13 130 l3 130 -25 0 c-19 0 -21 -3 -12 -12 8 -8 12 -46 11 -107 l0 -96
-110 115 -109 114 0 -122z"/>
<path d="M1636 675 c-26 -69 -52 -128 -57 -131 -16 -10 -10 -22 9 -17 10 2 24
22 33 46 14 42 15 42 63 42 47 0 49 -1 64 -40 19 -50 14 -45 48 -51 27 -5 27
-4 12 13 -9 10 -37 70 -63 133 -26 63 -50 118 -54 122 -3 4 -28 -49 -55 -117z
m78 -13 c7 -20 4 -22 -29 -22 -34 0 -37 2 -31 25 3 13 11 37 17 52 l11 28 13
-31 c7 -17 16 -40 19 -52z"/>
<path d="M2282 790 c-12 -5 -27 -21 -32 -35 -13 -35 7 -73 59 -110 52 -35 63
-71 31 -97 -29 -23 -55 -23 -80 2 -19 19 -20 19 -20 1 0 -22 19 -31 61 -31 41
0 68 16 80 47 15 39 -4 73 -61 116 -49 37 -56 50 -44 81 9 23 80 22 93 -1 9
-16 10 -16 11 3 0 33 -47 44 -98 24z"/>
<path d="M1881 768 c7 -14 10 -58 7 -129 l-4 -108 62 -6 c68 -8 84 -3 84 23 0
13 -2 14 -9 4 -5 -9 -24 -12 -52 -10 l-44 3 0 123 0 122 -28 0 c-25 0 -27 -2
-16 -22z"/>
<path d="M2105 657 l0 -132 28 -1 c21 -1 25 2 16 12 -6 8 -9 58 -7 133 3 115
2 121 -17 121 -19 0 -20 -7 -20 -133z"/>
<path d="M2475 658 l0 -133 70 0 c62 0 70 2 73 20 3 16 1 18 -9 8 -7 -7 -30
-13 -51 -13 l-38 0 0 61 0 61 40 -4 c24 -2 40 1 40 7 0 6 -16 9 -40 7 l-40 -4
0 56 0 56 33 0 c18 0 38 -5 45 -12 9 -9 12 -8 12 5 0 14 -11 17 -67 17 l-68 0
0 -132z"/>
<path d="M943 403 c15 -4 17 -20 17 -153 0 -109 -3 -150 -12 -154 -7 -3 25 -4
72 -3 76 2 85 4 89 22 3 16 1 17 -12 7 -9 -8 -33 -12 -54 -10 l-38 3 -3 68 -3
67 40 0 c22 0 42 -5 44 -12 3 -7 6 -3 6 10 1 20 -4 22 -44 22 l-45 0 0 60 0
60 40 0 c27 0 42 -6 49 -17 9 -15 10 -14 11 10 l0 27 -87 -1 c-49 -1 -80 -3
-70 -6z"/>
<path d="M1565 360 c-50 -11 -74 -29 -95 -70 -24 -47 -25 -81 -4 -126 46 -96
194 -101 255 -8 21 33 25 100 7 139 -22 48 -101 80 -163 65z m84 -25 c54 -27
73 -140 33 -194 -43 -59 -143 -45 -176 24 -29 61 -13 148 31 174 26 15 80 13
112 -4z"/>
<path d="M1169 351 c8 -5 37 -64 65 -131 28 -67 55 -123 59 -123 5 -1 33 54
63 123 30 68 60 128 67 132 7 5 3 8 -13 8 -22 0 -27 -8 -43 -57 -23 -73 -58
-153 -66 -153 -8 0 -76 181 -75 198 1 7 -11 12 -35 12 -25 0 -32 -3 -22 -9z"/>
<path d="M1808 353 c17 -7 17 -234 0 -251 -10 -10 4 -12 72 -10 76 3 85 5 88
23 3 16 1 18 -9 8 -19 -19 -95 -17 -103 3 -11 30 -7 209 6 222 9 9 3 12 -27
11 -22 0 -34 -3 -27 -6z"/>
<path d="M2006 352 c6 -4 13 -49 16 -102 7 -130 29 -160 119 -160 31 0 47 7
70 29 28 28 29 33 29 123 0 60 4 98 12 106 9 9 4 12 -22 11 -19 0 -29 -3 -22
-6 17 -7 16 -164 -2 -208 -18 -42 -71 -57 -111 -31 -32 21 -37 44 -33 155 l3
91 -35 0 c-19 0 -30 -4 -24 -8z"/>
<path d="M2300 348 c0 -9 15 -12 50 -10 l50 4 0 -114 c0 -75 -4 -118 -12 -126
-9 -9 -2 -12 33 -12 35 1 40 3 27 11 -16 9 -18 26 -18 124 l0 115 38 0 c21 0
43 -5 50 -12 9 -9 12 -7 12 10 0 21 -3 22 -115 22 -85 0 -115 -3 -115 -12z"/>
<path d="M2598 348 c15 -15 16 -211 2 -239 -10 -17 -7 -19 32 -18 24 1 35 3
25 6 -16 4 -18 16 -15 134 l3 129 -29 0 c-23 0 -27 -3 -18 -12z"/>
<path d="M2722 346 c8 -7 36 -68 63 -135 27 -66 52 -121 56 -121 4 0 30 55 59
123 28 67 59 128 68 135 14 10 11 12 -17 12 -18 0 -30 -4 -26 -9 6 -11 -64
-201 -74 -201 -10 0 -82 191 -75 201 3 5 -11 9 -31 9 -31 0 -34 -2 -23 -14z"/>
<path d="M3025 235 c-27 -69 -55 -130 -64 -135 -12 -7 -8 -9 16 -10 23 0 31 4
27 13 -2 7 2 30 11 51 15 36 17 37 63 34 46 -3 47 -4 62 -50 14 -45 17 -48 50
-48 33 0 34 0 13 15 -12 9 -40 63 -69 135 -26 66 -51 120 -54 120 -4 0 -29
-56 -55 -125z m79 -1 c6 -19 2 -22 -29 -26 -40 -5 -43 4 -19 60 l15 37 13 -25
c8 -14 16 -35 20 -46z"/>
</g>
</svg>
